<svg width="39" height="33" viewBox="0 0 39 33" fill="none" xmlns="http://www.w3.org/2000/svg">
<path d="M37.6817 8.47378C37.4459 7.90807 36.9744 7.43665 36.4085 7.20093L19.9036 0.176781C19.2905 -0.0589271 18.6304 -0.0589271 18.0173 0.176781L1.51243 7.24808C0.28635 7.76664 -0.279532 9.1809 0.239193 10.4066C0.474977 10.9723 0.946545 11.4437 1.51243 11.6794L18.0173 18.7036C18.6304 18.9393 19.2905 18.9393 19.9036 18.7036L36.4085 11.6323C37.6346 11.1137 38.2004 9.69947 37.6817 8.47378Z" fill="white"/>
<path d="M37.965 22.7095C37.5406 21.4367 36.173 20.7296 34.8998 21.1539C34.7583 21.201 34.6169 21.2481 34.4754 21.3424L18.9136 27.9423L3.35183 21.3424C2.12575 20.8238 0.711044 21.3896 0.192318 22.6153C-0.326407 23.841 0.239475 25.2552 1.46555 25.7738L17.9705 32.798C18.5835 33.0337 19.2437 33.0337 19.8567 32.798L36.3617 25.7266C37.682 25.3495 38.3894 23.9824 37.965 22.7095Z" fill="white"/>
<path d="M37.6817 15.5918C37.163 14.319 35.7483 13.7533 34.5222 14.2719L18.9604 20.9189L3.3987 14.2719C2.17262 13.7533 0.757918 14.319 0.239193 15.5447C-0.279532 16.7704 0.28635 18.1846 1.51243 18.7032L18.0173 25.7745C18.6303 26.0102 19.2905 26.0102 19.9036 25.7745L36.4085 18.7504C37.6345 18.2318 38.2004 16.8175 37.6817 15.5918Z" fill="white"/>
</svg>
